<?xml version="1.0" encoding="UTF-8"?>
<svg id="Layer_2" data-name="Layer 2" xmlns="http://www.w3.org/2000/svg" viewBox="0 0 595.05 295.69">
  <defs>
    <style>
      .cls-1 {
        fill: #000000;
      }
    </style>
  </defs>
  <g id="Layer_1-2" data-name="Layer 1">
    <g>
      <g>
        <path class="cls-1" d="m108.19,293.11v-25.62l-11.4,20.31c-.41.73-1.18,1.18-2.02,1.18h-.12c-.84,0-1.61-.45-2.02-1.18l-11.45-20.32v25.62c0,1.28-1.04,2.32-2.32,2.32h0c-1.28,0-2.32-1.04-2.32-2.32v-31.97c0-1.28,1.04-2.32,2.32-2.32h1.22c.84,0,1.62.46,2.03,1.19l12.59,22.58,12.64-22.58c.41-.73,1.18-1.19,2.02-1.19h1.17c1.28,0,2.32,1.04,2.32,2.32v31.97c0,1.28-1.04,2.32-2.32,2.32h0c-1.28,0-2.32-1.04-2.32-2.32Z"/>
        <path class="cls-1" d="m142.63,295.69c-2.58,0-4.92-.52-7.01-1.55-2.1-1.03-3.91-2.43-5.44-4.2-1.53-1.77-2.71-3.76-3.53-5.98-.82-2.22-1.24-4.49-1.24-6.83s.44-4.77,1.31-6.99c.88-2.22,2.1-4.19,3.66-5.93,1.56-1.74,3.39-3.11,5.49-4.12,2.1-1.01,4.38-1.52,6.86-1.52s4.91.53,7.01,1.6c2.1,1.07,3.9,2.49,5.41,4.28,1.51,1.79,2.68,3.78,3.51,5.98.82,2.2,1.24,4.45,1.24,6.75,0,2.44-.43,4.77-1.29,6.99-.86,2.22-2.07,4.19-3.63,5.93-1.56,1.74-3.39,3.1-5.49,4.1-2.1,1-4.38,1.5-6.86,1.5Zm-12.53-18.56c0,1.86.3,3.65.9,5.39.6,1.74,1.45,3.27,2.55,4.61,1.1,1.34,2.42,2.41,3.97,3.2,1.55.79,3.27,1.19,5.16,1.19s3.71-.41,5.26-1.24c1.55-.82,2.86-1.92,3.94-3.3,1.08-1.37,1.91-2.92,2.47-4.64.57-1.72.85-3.45.85-5.21,0-1.86-.3-3.64-.9-5.36-.6-1.72-1.46-3.26-2.58-4.61-1.12-1.36-2.44-2.42-3.97-3.2-1.53-.77-3.22-1.16-5.08-1.16-1.96,0-3.71.4-5.26,1.21-1.55.81-2.86,1.9-3.94,3.27-1.08,1.38-1.92,2.91-2.5,4.61-.59,1.7-.88,3.45-.88,5.23Z"/>
        <path class="cls-1" d="m195.73,262.95h-8.51c-1.14,0-2.06.92-2.06,2.06v28.36c0,1.14-.92,2.06-2.06,2.06h-.52c-1.14,0-2.06-.92-2.06-2.06v-28.36c0-1.14-.92-2.06-2.06-2.06h-8.51c-1.14,0-2.06-.92-2.06-2.06h0c0-1.14.92-2.06,2.06-2.06h25.78c1.14,0,2.06.92,2.06,2.06h0c0,1.14-.92,2.06-2.06,2.06Z"/>
        <path class="cls-1" d="m209.24,293.11v-31.97c0-1.28,1.04-2.32,2.32-2.32h0c1.28,0,2.32,1.04,2.32,2.32v31.97c0,1.28-1.04,2.32-2.32,2.32h0c-1.28,0-2.32-1.04-2.32-2.32Z"/>
        <path class="cls-1" d="m243.68,295.69c-2.58,0-4.92-.52-7.01-1.55-2.1-1.03-3.91-2.43-5.44-4.2-1.53-1.77-2.71-3.76-3.53-5.98-.82-2.22-1.24-4.49-1.24-6.83s.44-4.77,1.31-6.99c.88-2.22,2.1-4.19,3.66-5.93,1.56-1.74,3.39-3.11,5.49-4.12,2.1-1.01,4.38-1.52,6.86-1.52s4.91.53,7.01,1.6c2.1,1.07,3.9,2.49,5.41,4.28,1.51,1.79,2.68,3.78,3.51,5.98.82,2.2,1.24,4.45,1.24,6.75,0,2.44-.43,4.77-1.29,6.99-.86,2.22-2.07,4.19-3.63,5.93-1.56,1.74-3.39,3.1-5.49,4.1-2.1,1-4.38,1.5-6.86,1.5Zm-12.53-18.56c0,1.86.3,3.65.9,5.39.6,1.74,1.45,3.27,2.55,4.61,1.1,1.34,2.42,2.41,3.97,3.2,1.55.79,3.27,1.19,5.16,1.19s3.71-.41,5.26-1.24c1.55-.82,2.86-1.92,3.94-3.3,1.08-1.37,1.91-2.92,2.47-4.64.57-1.72.85-3.45.85-5.21,0-1.86-.3-3.64-.9-5.36-.6-1.72-1.46-3.26-2.58-4.61-1.12-1.36-2.44-2.42-3.97-3.2-1.53-.77-3.22-1.16-5.08-1.16-1.96,0-3.71.4-5.26,1.21-1.55.81-2.86,1.9-3.94,3.27-1.08,1.38-1.92,2.91-2.5,4.61-.59,1.7-.88,3.45-.88,5.23Z"/>
        <path class="cls-1" d="m278.22,267.39v25.73c0,1.28-1.04,2.32-2.32,2.32h0c-1.28,0-2.32-1.04-2.32-2.32v-31.97c0-1.28,1.04-2.32,2.32-2.32h0c1.01,0,1.96.46,2.58,1.26l21.39,27.35v-26.24c0-1.28,1.04-2.32,2.32-2.32h0c1.28,0,2.32,1.04,2.32,2.32v31.91c0,1.28-1.04,2.32-2.32,2.32h0c-1.2,0-2.34-.55-3.09-1.5l-20.89-26.55Z"/>
        <path class="cls-1" d="m336.32,276.82c0-2.23.39-4.42,1.16-6.57.77-2.15,1.91-4.11,3.4-5.88,1.49-1.77,3.33-3.18,5.49-4.23,2.17-1.05,4.62-1.57,7.37-1.57,3.26,0,6.07.75,8.4,2.24,1.69,1.08,3.07,2.38,4.13,3.91.67.96.38,2.29-.6,2.93l-.12.08c-.97.63-2.23.33-2.89-.61-.51-.73-1.08-1.35-1.72-1.87-1.12-.91-2.32-1.55-3.61-1.93-1.29-.38-2.55-.57-3.79-.57-2.03,0-3.82.41-5.39,1.24-1.56.82-2.88,1.93-3.94,3.3-1.07,1.38-1.86,2.91-2.4,4.61-.53,1.7-.8,3.41-.8,5.13,0,1.89.32,3.71.95,5.47.64,1.75,1.52,3.3,2.66,4.64,1.13,1.34,2.47,2.41,4.02,3.2,1.55.79,3.23,1.19,5.05,1.19,1.27,0,2.58-.22,3.92-.67,1.34-.45,2.59-1.14,3.76-2.09.7-.57,1.31-1.23,1.84-2,.62-.9,1.8-1.22,2.75-.69l.24.13c1.1.6,1.41,2.01.71,3.05-.65.96-1.45,1.82-2.4,2.58-1.58,1.27-3.34,2.23-5.28,2.89-1.94.65-3.86.98-5.75.98-2.51,0-4.81-.54-6.91-1.62-2.1-1.08-3.91-2.53-5.44-4.33-1.53-1.8-2.72-3.83-3.56-6.08-.84-2.25-1.26-4.53-1.26-6.83Z"/>
        <path class="cls-1" d="m392.62,258.83h0c-1.18,0-2.25.72-2.7,1.81l-12.97,31.66c-.61,1.49.49,3.13,2.1,3.13h0c.94,0,1.78-.58,2.12-1.46l.98-2.56h0l2.57-6.7,1.39-3.61,6.5-16.91,6.47,16.91,1.38,3.61,1.19,3.12,2.35,6.14c.34.88,1.18,1.46,2.13,1.46h0c1.62,0,2.72-1.64,2.11-3.14l-12.93-31.65c-.45-1.1-1.52-1.81-2.7-1.81Z"/>
        <path class="cls-1" d="m448.72,286c0,1.89-.48,3.54-1.44,4.95-.96,1.41-2.26,2.51-3.89,3.3-1.63.79-3.43,1.19-5.39,1.19h-15.41c-1.09,0-1.97-.88-1.97-1.97v-32.67c0-1.09.88-1.97,1.97-1.97h16.23c1.72,0,3.2.46,4.46,1.37,1.25.91,2.22,2.08,2.89,3.51.67,1.43,1.01,2.91,1.01,4.46,0,1.79-.46,3.46-1.37,5.03-.91,1.56-2.21,2.72-3.89,3.48,2.1.62,3.75,1.76,4.98,3.43,1.22,1.67,1.83,3.63,1.83,5.9Zm-23.46-23.15v12.22h11.65c1.1,0,2.07-.27,2.91-.82.84-.55,1.51-1.29,2.01-2.22.5-.93.75-1.94.75-3.04,0-1.17-.23-2.21-.7-3.12-.46-.91-1.1-1.64-1.91-2.19-.81-.55-1.73-.82-2.76-.82h-11.96Zm18.77,22.32c0-1.13-.25-2.18-.75-3.15-.5-.96-1.17-1.74-2.01-2.32-.84-.58-1.81-.88-2.91-.88h-13.1v12.58h12.73c1.13,0,2.16-.29,3.07-.88.91-.58,1.63-1.35,2.17-2.29.53-.94.8-1.97.8-3.07Z"/>
        <path class="cls-1" d="m461.4,293.11v-31.97c0-1.28,1.04-2.32,2.32-2.32h0c1.28,0,2.32,1.04,2.32,2.32v31.97c0,1.28-1.04,2.32-2.32,2.32h0c-1.28,0-2.32-1.04-2.32-2.32Z"/>
        <path class="cls-1" d="m485.63,267.39v25.73c0,1.28-1.04,2.32-2.32,2.32h0c-1.28,0-2.32-1.04-2.32-2.32v-31.97c0-1.28,1.04-2.32,2.32-2.32h0c1.01,0,1.96.46,2.58,1.26l21.39,27.35v-26.24c0-1.28,1.04-2.32,2.32-2.32h0c1.28,0,2.32,1.04,2.32,2.32v31.91c0,1.28-1.04,2.32-2.32,2.32h-.32c-1.01,0-1.96-.46-2.58-1.25l-21.08-26.8Z"/>
      </g>
      <g>
        <g>
          <path class="cls-1" d="m4.04,155.73h89.93c4.06,0,5.54,5.34,2.06,7.43l-69.5,41.7C14.87,211.85.04,203.46.04,189.87v-30.14c0-2.21,1.78-4,3.99-4Z"/>
          <path class="cls-1" d="m173.68,90.86L26.49,2.52C14.83-4.47,0,3.93,0,17.53l.03,121.2c0,2.21,1.79,4,4,4h52.42c2.21,0,4-1.79,4-4v-22.64c0-1.23-1.35-1.99-2.4-1.35l-9.23,5.55c-2.54,1.52-5.85.7-7.38-1.84h0c-1.53-2.56-.71-5.86,1.84-7.39l28.83-17.32c3.6-2.17,8.21.46,8.15,4.69-.03,1.92-1.15,3.66-2.8,4.64l-3.65,2.19c-1.61.97-2.6,2.73-2.6,4.62v28.85c0,2.21,1.79,4,4,4h53.77c.72,0,1.44-.2,2.06-.57l42.65-25.59c9.7-5.83,9.7-19.89,0-25.71Zm-76.6,29.74c0,1.38-1.12,2.5-2.5,2.5h-7.95c-1.38,0-2.5-1.12-2.5-2.5v-7.95c0-1.38,1.12-2.5,2.5-2.5h7.95c1.38,0,2.5,1.12,2.5,2.5v7.95Z"/>
        </g>
        <g>
          <path class="cls-1" d="m211.09,155.73h89.93c4.06,0,5.54,5.34,2.06,7.43l-69.5,41.7c-11.65,6.99-26.48-1.4-26.48-14.99v-30.14c0-2.21,1.78-4,3.99-4Z"/>
          <path class="cls-1" d="m211.09,155.73h89.93c4.06,0,5.54,5.34,2.06,7.43l-69.5,41.7c-11.65,6.99-26.48-1.4-26.48-14.99v-30.14c0-2.21,1.78-4,3.99-4Z"/>
          <path class="cls-1" d="m380.73,90.86L233.54,2.52c-11.66-6.99-26.49,1.41-26.49,15.01l.03,121.2c0,2.21,1.79,4,4,4h37.07c2.21,0,4-1.79,4-4v-22.67c0-1.23-1.34-1.99-2.39-1.35l-9.24,5.55c-2.54,1.52-5.84.7-7.37-1.84h0c-1.54-2.56-.71-5.86,1.84-7.39l53.44-32.11c1.7-1.02,3.84-1.02,5.54,0l14.03,8.43c1.95,1.18,2.99,3.49,2.46,5.82-.89,3.92-4.75,5.36-8.19,3.29l-8.3-4.99c-1.7-1.03-3.84-1.03-5.54,0l-22.91,13.76c-1.62.97-2.61,2.73-2.61,4.62v28.88c0,2.21,1.79,4,4,4h69.12c.72,0,1.44-.2,2.06-.57l42.65-25.59c9.7-5.82,9.7-19.89,0-25.71Zm-91.93,29.71c0,1.38-1.12,2.5-2.5,2.5h-7.95c-1.38,0-2.5-1.12-2.5-2.5v-7.95c0-1.38,1.12-2.5,2.5-2.5h7.95c1.38,0,2.5,1.12,2.5,2.5v7.95Z"/>
        </g>
        <g>
          <path class="cls-1" d="m418.14,155.73h89.93c4.06,0,5.54,5.34,2.06,7.43l-69.5,41.7c-11.65,6.99-26.48-1.4-26.48-14.99v-30.14c0-2.21,1.78-4,3.99-4Z"/>
          <path class="cls-1" d="m587.77,90.86L440.58,2.52c-11.65-6.99-26.49,1.41-26.49,15.01l.03,121.2c0,2.21,1.79,4,4,4h30.57c2.21,0,4-1.79,4-4v-22.67c0-1.23-1.34-1.99-2.39-1.35l-9.24,5.55c-2.54,1.52-5.85.7-7.37-1.84h0c-1.54-2.56-.71-5.86,1.84-7.39l53.44-32.11c1.7-1.02,3.83-1.02,5.54,0l14.02,8.43c1.62.97,2.61,2.72,2.61,4.61,0,4.18-4.56,6.76-8.15,4.61l-8.48-5.1c-1.71-1.03-3.84-1.03-5.54,0l-22.91,13.76c-1.62.97-2.61,2.73-2.61,4.62v28.88c0,2.21,1.79,4,4,4h48.57c2.21,0,4-1.79,4-4v-37.35c0-3.04,3.3-5.09,5.93-3.56.02.01.04.02.06.04l21.94,13.18c2.55,1.53,3.37,4.83,1.85,7.38-1.54,2.55-4.84,3.37-7.39,1.84l-9.23-5.55c-1.06-.63-2.39.12-2.39,1.35v22.68c0,2.21,1.79,4,4,4h8.29c.73,0,1.44-.2,2.06-.57l42.64-25.59c9.7-5.82,9.7-19.89,0-25.71Zm-98.57,29.89c0,1.38-1.12,2.5-2.5,2.5h-7.95c-1.38,0-2.5-1.12-2.5-2.5v-7.94c0-1.38,1.12-2.5,2.5-2.5h7.95c1.38,0,2.5,1.12,2.5,2.5v7.94Z"/>
        </g>
      </g>
    </g>
  </g>
</svg>